<mxfile host="app.diagrams.net" modified="2023-12-01T10:10:26.955Z" agent="Mozilla/5.0 (X11; Linux x86_64) AppleWebKit/537.36 (KHTML, like Gecko) Chrome/119.0.0.0 Safari/537.36" etag="0O7BCzC-8HTtmMThNda1" version="22.1.5" type="github">
  <diagram name="Page-1" id="pmQrh8WyugEyjfTZw542">
    <mxGraphModel dx="1492" dy="831" grid="1" gridSize="10" guides="1" tooltips="1" connect="1" arrows="1" fold="1" page="1" pageScale="1" pageWidth="1169" pageHeight="827" math="0" shadow="0">
      <root>
        <mxCell id="0" />
        <mxCell id="1" parent="0" />
      </root>
    </mxGraphModel>
  </diagram>
</mxfile>
